<?xml version="1.0" standalone="no"?>
<!DOCTYPE svg PUBLIC "-//W3C//DTD SVG 20010904//EN"
 "http://www.w3.org/TR/2001/REC-SVG-20010904/DTD/svg10.dtd">
<svg version="1.0" xmlns="http://www.w3.org/2000/svg"
 width="1000.000000pt" height="200.000000pt" viewBox="0 0 1000.000000 200.000000"
 preserveAspectRatio="xMidYMid meet">
<metadata>
Created by potrace 1.14, written by Peter Selinger 2001-2017
</metadata>
<g transform="translate(0.000000,200.000000) scale(0.100000,-0.100000)"
fill="#000000" stroke="none">
<path d="M713 1810 c-347 -44 -631 -302 -694 -630 -19 -102 -15 -280 10 -375
73 -279 265 -473 556 -561 80 -24 106 -27 240 -28 115 0 165 4 215 18 251 70
435 214 741 581 88 105 185 221 216 258 73 86 183 180 248 212 172 84 377 28
455 -124 39 -77 43 -200 10 -286 -46 -120 -204 -202 -344 -178 -33 6 -61 10
-62 9 0 0 -71 -85 -157 -188 -86 -103 -157 -189 -157 -192 0 -9 82 -48 153
-72 240 -82 539 -45 753 91 442 283 474 960 60 1291 -148 119 -325 177 -536
177 -107 0 -138 -4 -215 -27 -99 -30 -207 -84 -302 -152 -112 -80 -233 -205
-455 -471 -249 -299 -317 -365 -437 -425 -80 -41 -88 -43 -170 -42 -134 1
-230 53 -286 156 -38 70 -47 188 -20 269 25 74 110 159 182 183 58 19 148 25
204 13 l35 -7 145 172 c79 95 150 181 158 191 12 15 12 19 -5 32 -27 20 -159
72 -231 90 -79 19 -218 26 -310 15z"/>
<path d="M4322 1519 c-251 -49 -355 -285 -201 -454 54 -58 123 -98 254 -145
50 -18 106 -41 127 -51 81 -41 101 -113 49 -171 -29 -32 -32 -33 -108 -33
-117 1 -173 41 -173 125 l0 30 -125 0 -125 0 0 -33 c0 -196 249 -346 511 -309
135 19 216 66 263 152 58 107 42 233 -42 322 -58 63 -101 87 -236 138 -128 48
-163 65 -193 93 -25 23 -31 74 -12 109 24 46 153 65 210 31 29 -17 59 -67 59
-97 0 -14 17 -16 126 -16 l127 0 -7 41 c-28 175 -179 281 -394 278 -37 -1 -86
-5 -110 -10z"/>
<path d="M9620 1345 l0 -95 -45 0 -45 0 0 -80 0 -80 44 0 44 0 4 -227 c3 -220
4 -230 28 -278 14 -27 40 -60 58 -72 61 -40 169 -51 270 -26 21 5 22 10 22 89
l0 84 -50 0 c-37 0 -55 5 -70 20 -19 19 -20 33 -20 215 l0 195 65 0 65 0 0 80
0 80 -65 0 -65 0 0 95 0 95 -120 0 -120 0 0 -95z"/>
<path d="M6155 1259 c-40 -10 -105 -48 -105 -61 0 -5 -4 -8 -10 -8 -5 0 -10
14 -10 30 l0 30 -115 0 -115 0 0 -530 0 -530 120 0 120 0 0 175 c0 96 3 175 6
175 3 0 19 -11 35 -24 43 -36 121 -51 191 -37 97 21 170 88 211 197 18 50 22
79 21 199 0 124 -2 147 -23 199 -56 140 -192 217 -326 185z m48 -190 c44 -20
61 -65 65 -174 5 -116 -7 -172 -45 -210 -25 -24 -33 -27 -82 -23 -44 4 -59 10
-78 32 -22 26 -23 34 -23 180 0 145 1 153 23 173 12 11 29 23 37 26 26 9 78 7
103 -4z"/>
<path d="M6909 1260 c-162 -27 -267 -146 -291 -328 -20 -147 18 -268 111 -355
62 -58 113 -82 208 -98 123 -20 274 23 346 98 l27 29 -46 55 c-25 30 -50 58
-55 63 -5 6 -18 1 -32 -12 -57 -53 -182 -70 -245 -32 -32 20 -72 74 -72 98 0
9 54 12 236 12 l237 0 -6 108 c-3 59 -13 127 -22 152 -38 109 -125 183 -239
207 -67 14 -89 14 -157 3z m144 -200 c28 -22 52 -82 43 -105 -4 -12 -29 -15
-121 -15 -109 0 -115 1 -115 20 0 32 36 95 62 107 38 19 102 15 131 -7z"/>
<path d="M7792 1259 c-18 -6 -50 -28 -72 -50 l-39 -41 -7 41 -7 41 -108 0
-109 0 0 -380 0 -380 120 0 120 0 2 251 3 252 28 21 c22 16 47 22 108 25 l79
3 0 108 0 108 -31 6 c-38 7 -45 7 -87 -5z"/>
<path d="M8240 1260 c-151 -23 -240 -112 -240 -238 0 -47 5 -67 26 -98 15 -21
34 -44 43 -52 38 -30 115 -63 194 -83 111 -27 147 -49 147 -88 0 -52 -47 -79
-117 -68 -50 8 -83 33 -90 67 l-5 30 -115 0 -115 0 7 -32 c34 -157 211 -250
410 -218 86 14 149 41 194 83 44 42 61 84 61 150 0 111 -73 185 -218 222 -158
40 -172 46 -188 70 -32 49 12 105 84 105 36 0 78 -31 86 -65 6 -25 7 -25 126
-25 l120 0 -7 33 c-9 52 -45 109 -91 144 -70 53 -200 80 -312 63z"/>
<path d="M9049 1260 c-77 -14 -146 -49 -194 -101 -56 -60 -83 -121 -98 -221
-21 -143 15 -269 102 -355 141 -141 402 -147 556 -12 l35 31 -29 37 c-17 20
-41 50 -55 66 l-24 30 -24 -22 c-58 -54 -183 -71 -246 -33 -32 20 -72 73 -72
97 0 10 56 13 233 15 l232 3 3 60 c9 183 -71 335 -202 384 -64 24 -154 33
-217 21z m146 -202 c25 -22 50 -92 39 -110 -3 -4 -57 -8 -120 -8 -109 0 -114
1 -114 21 0 34 31 89 59 104 41 22 105 19 136 -7z"/>
<path d="M4962 953 c4 -324 5 -333 65 -403 75 -90 246 -102 347 -25 l44 33 6
-34 7 -34 109 0 110 0 0 380 0 380 -120 0 -120 0 0 -267 c0 -148 -4 -273 -8
-279 -34 -49 -136 -61 -177 -19 l-25 24 0 271 0 270 -121 0 -120 0 3 -297z"/>
</g>
</svg>
