<?xml version="1.0" standalone="no"?>
<!DOCTYPE svg PUBLIC "-//W3C//DTD SVG 20010904//EN"
 "http://www.w3.org/TR/2001/REC-SVG-20010904/DTD/svg10.dtd">
<svg version="1.0" xmlns="http://www.w3.org/2000/svg"
 width="900.000000pt" height="375.000000pt" viewBox="0 0 900.000000 375.000000"
 preserveAspectRatio="xMidYMid meet">
<metadata>
Created by potrace 1.10, written by Peter Selinger 2001-2011
</metadata>
<g transform="translate(0.000000,375.000000) scale(0.100000,-0.100000)"
fill="#000000" stroke="none">
<path d="M1447 3681 c-98 -51 -226 -130 -296 -186 -56 -44 -179 -173 -207
-215 -16 -25 -31 -47 -34 -50 -11 -11 -50 -98 -50 -112 0 -8 -6 -20 -12 -27
-9 -8 -13 -56 -13 -166 0 -110 4 -158 13 -167 6 -6 12 -18 12 -26 0 -13 33
-94 50 -122 5 -8 19 -33 31 -55 11 -22 24 -42 28 -45 3 -3 19 -24 35 -47 29
-43 200 -221 266 -278 19 -16 100 -78 180 -137 171 -127 147 -108 241 -186 42
-34 98 -91 125 -125 26 -34 51 -64 54 -67 14 -13 50 -70 50 -80 0 -5 3 -10 8
-10 6 0 25 -37 63 -125 30 -71 43 -128 43 -202 1 -46 3 -83 7 -83 11 0 158
219 159 238 1 4 9 25 20 47 11 22 19 46 20 53 0 7 5 20 10 30 6 9 16 64 23
122 19 157 -3 278 -77 428 -17 35 -37 68 -43 74 -7 6 -13 16 -13 22 0 6 -10
23 -22 36 -44 49 -193 214 -208 230 -66 72 -103 116 -203 245 -72 94 -140 201
-174 275 -41 87 -53 118 -53 133 0 9 -4 18 -9 22 -5 3 -13 31 -16 63 -4 31
-11 76 -16 99 -10 46 15 250 32 268 5 5 9 17 9 27 0 10 11 41 25 68 14 27 25
52 25 55 0 11 -28 3 -83 -24z"/>
<path d="M5100 2826 l0 -256 25 -6 c48 -12 55 6 55 146 0 127 0 129 27 149 39
31 70 36 110 17 52 -25 65 -68 61 -194 -2 -91 -1 -105 15 -113 9 -6 26 -7 37
-4 19 6 20 16 20 135 0 152 -10 181 -80 229 -36 25 -56 31 -97 31 -29 0 -55
-4 -58 -10 -3 -5 -12 -10 -20 -10 -10 0 -15 18 -17 68 l-3 67 -37 3 -38 3 0
-255z"/>
<path d="M545 2992 c-121 -104 -170 -153 -241 -242 -85 -105 -164 -243 -164
-285 0 -12 -4 -25 -8 -30 -5 -6 -17 -45 -27 -87 -20 -85 -17 -116 27 -256 19
-58 72 -170 87 -182 3 -3 19 -23 34 -46 38 -56 155 -167 252 -240 65 -49 426
-274 440 -274 4 0 106 -65 120 -77 6 -5 28 -20 50 -33 22 -13 45 -28 50 -32
304 -226 424 -347 494 -500 11 -26 21 -62 21 -80 l0 -33 20 25 c11 14 20 29
20 33 0 4 9 29 21 55 35 81 37 86 52 137 28 91 41 179 41 280 0 101 -17 222
-35 239 -5 6 -9 17 -9 25 0 27 -56 128 -107 192 -54 70 -174 176 -243 216 -25
14 -47 29 -50 32 -3 3 -13 11 -22 16 -33 20 -127 86 -140 98 -7 7 -44 37 -83
67 -141 109 -318 298 -411 440 -39 58 -94 172 -94 193 0 9 -4 18 -9 21 -17 11
-34 149 -28 228 4 58 12 92 31 128 17 33 22 50 14 50 -7 -1 -53 -36 -103 -78z"/>
<path d="M3329 2940 c-82 -43 -120 -130 -105 -234 6 -36 17 -55 51 -89 68 -68
154 -84 237 -43 28 14 33 14 48 1 20 -18 42 -19 58 -3 17 17 17 359 0 376 -17
17 -47 15 -54 -3 -8 -19 -33 -19 -58 0 -29 22 -132 19 -177 -5z m151 -65 c39
-20 80 -82 80 -120 0 -64 -66 -127 -135 -127 -100 0 -168 117 -114 194 45 62
111 83 169 53z"/>
<path d="M3711 2942 c-14 -26 -14 -467 -1 -492 12 -22 45 -27 57 -7 4 6 6 40
5 74 -2 33 1 64 6 67 5 3 23 -1 40 -10 122 -61 267 13 288 146 16 98 -22 175
-107 219 -48 25 -144 28 -173 6 -25 -19 -52 -19 -60 0 -8 21 -43 19 -55 -3z
m249 -67 c39 -20 80 -82 80 -120 0 -65 -65 -125 -135 -125 -102 0 -166 104
-115 188 39 64 110 88 170 57z"/>
<path d="M4285 2943 c-76 -40 -115 -102 -115 -183 0 -93 62 -178 145 -199 61
-15 83 -14 134 9 41 19 46 19 68 5 13 -9 33 -13 43 -10 19 6 20 17 20 195 0
182 -1 189 -21 195 -13 4 -27 1 -38 -9 -22 -20 -40 -20 -65 -1 -27 20 -132 19
-171 -2z m145 -68 c68 -35 94 -108 62 -171 -43 -84 -141 -102 -204 -39 -64 64
-55 152 21 202 39 27 80 29 121 8z"/>
<path d="M4732 2930 c-65 -47 -92 -97 -92 -173 0 -55 4 -70 29 -104 39 -54 71
-78 126 -93 70 -20 142 -1 194 52 23 22 41 49 41 59 0 31 -58 24 -100 -11 -28
-25 -43 -30 -86 -30 -146 0 -185 187 -51 248 43 19 81 15 118 -13 47 -34 90
-54 106 -48 36 14 -11 86 -80 123 -26 14 -56 20 -100 20 -55 0 -70 -4 -105
-30z"/>
<path d="M5610 2938 c-76 -48 -100 -93 -100 -183 0 -52 5 -73 24 -104 82 -129
245 -131 342 -4 19 25 23 37 15 51 -7 14 -6 25 5 40 34 49 -19 163 -95 202
-56 28 -144 27 -191 -2z m165 -71 c29 -17 40 -29 40 -47 0 -23 -1 -24 -103
-24 -111 -1 -137 9 -111 41 24 28 73 53 104 53 17 0 48 -11 70 -23z m95 -147
c0 -6 -8 -14 -17 -17 -10 -4 -37 -22 -60 -40 -31 -26 -51 -34 -82 -35 -65 -1
-138 57 -116 92 8 14 275 13 275 0z"/>
<path d="M2559 2918 c-19 -7 -19 -28 -19 -1105 0 -604 4 -1104 8 -1111 7 -9
57 -12 218 -10 l209 3 3 1010 c2 760 0 1021 -9 1055 -16 61 -60 114 -115 140
-38 19 -64 23 -160 24 -64 0 -124 -2 -135 -6z"/>
<path d="M6182 2577 c-7 -7 -11 -71 -11 -160 0 -118 3 -150 15 -162 13 -12 49
-15 204 -15 104 0 195 3 204 6 22 8 22 156 1 208 -23 54 -85 109 -139 124 -63
16 -260 16 -274 -1z"/>
<path d="M6732 2578 c-19 -19 -17 -1624 2 -1693 46 -167 116 -197 464 -199
152 -1 184 1 192 14 15 23 13 283 -2 298 -7 7 -42 12 -85 12 -79 0 -125 16
-143 49 -6 13 -10 186 -10 489 0 522 -6 482 69 482 88 0 181 111 181 217 0 75
-5 78 -115 75 -116 -4 -135 1 -135 34 0 89 -60 182 -138 215 -34 15 -68 19
-156 19 -74 0 -116 -4 -124 -12z"/>
<path d="M3735 2354 c-285 -25 -452 -124 -558 -334 -62 -120 -92 -236 -108
-405 -16 -179 6 -362 63 -515 50 -134 187 -290 326 -368 45 -25 128 -51 205
-63 67 -11 92 -11 171 3 133 22 256 89 292 159 9 18 23 29 35 29 18 0 20 -4
15 -37 -3 -21 -8 -65 -11 -98 -14 -141 -102 -276 -210 -324 -62 -27 -187 -29
-242 -4 -47 21 -110 69 -141 105 l-24 28 -219 0 -219 0 0 -25 c0 -24 14 -63
54 -143 33 -69 42 -82 88 -137 94 -113 191 -163 411 -214 61 -14 203 -14 264
0 27 6 77 18 113 26 117 26 245 84 332 150 92 70 149 156 184 278 31 106 35
218 32 780 -4 530 -6 563 -25 625 -75 240 -180 339 -468 438 -91 31 -268 54
-360 46z m195 -380 c63 -19 145 -94 177 -164 55 -121 58 -136 58 -310 -1 -141
-4 -175 -22 -232 -27 -83 -59 -135 -113 -181 -56 -48 -117 -67 -209 -67 -122
0 -192 30 -248 103 -47 63 -69 130 -83 253 -23 209 15 399 103 516 62 83 212
119 337 82z"/>
<path d="M5330 2355 c-8 -2 -49 -8 -90 -15 -92 -14 -153 -33 -250 -78 -139
-64 -223 -145 -268 -257 -58 -144 -55 -116 -60 -713 -2 -304 -1 -564 2 -578
l6 -24 208 2 207 3 5 565 c5 560 5 565 27 606 23 44 74 89 133 119 26 13 58
18 120 18 74 0 92 -3 135 -27 79 -44 113 -82 135 -154 19 -60 20 -95 20 -532
l0 -468 33 -44 c18 -24 52 -53 77 -65 40 -20 58 -22 175 -20 l130 2 3 530 c3
564 -1 620 -49 752 -31 88 -84 165 -146 215 -42 33 -170 96 -248 121 -78 24
-265 50 -305 42z"/>
<path d="M8055 2353 c-300 -30 -500 -177 -602 -443 -44 -115 -56 -202 -56
-397 0 -194 12 -283 49 -371 8 -18 14 -39 14 -46 0 -7 11 -33 25 -57 13 -24
29 -54 34 -66 18 -39 157 -177 214 -211 151 -91 355 -122 567 -88 94 16 111
21 220 74 56 28 97 58 162 123 48 47 92 96 98 110 5 13 14 31 19 39 8 15 30
64 50 113 23 58 28 57 -175 57 -209 0 -217 -2 -284 -78 -61 -66 -125 -92 -235
-92 -168 0 -272 87 -313 262 -20 82 -18 108 6 108 9 0 242 0 518 0 276 0 508
2 518 6 13 5 16 23 16 112 0 58 -6 131 -14 161 -8 31 -22 92 -32 136 -15 70
-45 144 -101 250 -9 17 -50 64 -92 105 -76 74 -147 118 -251 154 -77 26 -270
48 -355 39z m176 -369 c111 -33 166 -94 200 -224 13 -46 15 -68 7 -77 -8 -10
-78 -13 -305 -13 -335 0 -315 -6 -293 88 42 178 215 278 391 226z"/>
<path d="M6181 2166 c-18 -21 -15 -1450 3 -1465 9 -8 78 -11 217 -9 l204 3 3
734 c2 581 0 736 -10 743 -7 4 -101 8 -209 8 -154 0 -199 -3 -208 -14z"/>
<path d="M223 1558 c-8 -13 -16 -33 -56 -143 -31 -84 -31 -288 -1 -352 73
-152 261 -259 511 -293 274 -36 389 -58 578 -110 95 -26 246 -96 289 -134 61
-54 61 -31 -2 104 -47 102 -194 260 -293 315 -32 18 -189 95 -214 106 -11 4
-40 16 -65 27 -25 10 -61 25 -80 32 -53 20 -123 50 -142 60 -10 6 -23 10 -29
10 -17 0 -192 85 -264 127 -33 20 -77 52 -98 72 -46 43 -107 140 -107 170 0
23 -14 28 -27 9z"/>
</g>
</svg>
